<?xml version="1.0" encoding="UTF-8" standalone="no"?>
<svg
   xmlns:dc="http://purl.org/dc/elements/1.1/"
   xmlns:cc="http://creativecommons.org/ns#"
   xmlns:rdf="http://www.w3.org/1999/02/22-rdf-syntax-ns#"
   xmlns:svg="http://www.w3.org/2000/svg"
   xmlns="http://www.w3.org/2000/svg"
   viewBox="0 0 635.46667 109.69333"
   height="109.69333"
   width="635.46667"
   xml:space="preserve"
   id="svg2"
   version="1.1"><metadata
     id="metadata8"><rdf:RDF><cc:Work
         rdf:about=""><dc:format>image/svg+xml</dc:format><dc:type
           rdf:resource="http://purl.org/dc/dcmitype/StillImage" /></cc:Work></rdf:RDF></metadata><defs
     id="defs6" /><g
     transform="matrix(1.3333333,0,0,-1.3333333,0,109.69333)"
     id="g10"><g
       transform="scale(0.1)"
       id="g12"><path
         id="path14"
         style="fill:#2268bb;fill-opacity:1;fill-rule:nonzero;stroke:none"
         d="m 970.523,682.047 59.787,117.43 c -40.767,15.168 -84.958,23.199 -132.978,23.199 -111.578,0 -204.059,-40.352 -277.441,-121.02 -73.387,-80.691 -110.078,-177.89 -110.078,-291.601 0,-113.739 36.468,-210.5 109.429,-290.321 C 692.191,39.918 784.883,0.0078125 897.332,0.0078125 c 112.428,0 204.898,40.1093875 277.438,120.3671875 72.52,80.25 108.79,177.02 108.79,290.32 0,100.102 -29.26,187.121 -86.26,261.743 l -71,-139.571 c 13.5,-34.621 20.79,-72.57 20.79,-114.449 0,-81.551 -22.75,-149.98 -68.23,-205.344 -45.5,-55.359 -106.008,-83.039 -181.528,-83.039 -70.379,0 -129.609,28.961 -177.672,86.903 -48.066,57.937 -72.09,125.078 -72.09,201.48 0,76.379 22.532,141.18 67.59,194.406 45.063,53.203 105.57,79.821 181.531,79.821 26.653,0 51.122,-3.77 73.832,-10.598" /><path
         id="path16"
         style="fill:#2268bb;fill-opacity:1;fill-rule:nonzero;stroke:none"
         d="m 132.609,312.852 h 96.563 c 166.5,0 249.758,82.398 249.758,247.191 0,161.348 -90.559,242.039 -271.649,242.039 H 0 V 20.6016 h 132.609 z m 0,383.66 h 61.801 c 99.551,0 149.34,-45.512 149.34,-136.469 0,-94.434 -48.5,-141.621 -145.48,-141.621 h -65.661 v 278.09" /><path
         id="path18"
         style="fill:#2268bb;fill-opacity:1;fill-rule:nonzero;stroke:none"
         d="M 1465.08,802.078 H 1332.47 V 20.6055 h 368.21 V 132.605 h -235.6 z m 427.42,0 H 1759.89 V 20.6055 h 132.61 z m 357.9,-112.012 h 173.8 V 802.078 H 1956.86 V 690.066 h 173.81 V 20.6055 h 119.73 z m 372.05,112.012 H 2489.84 V 20.6055 h 132.61 V 802.078" /><path
         id="path20"
         style="fill:#e63c2b;fill-opacity:1;fill-rule:nonzero;stroke:none"
         d="M 3108.15,690.07 V 802.078 H 2719.34 V 20.6016 h 132.61 V 374.648 h 240.75 v 112 H 2851.95 V 690.07 Z m 435.14,-494.379 65.65,-175.0894 h 141.62 L 3462.04,802.191 H 3328.29 L 3032.17,20.6016 h 140.33 l 69.53,175.0894 z m -36.05,104.289 h -233.03 l 113.3,330.872 z m 746.41,477.641 c -58.38,30.027 -116.31,45.059 -173.81,45.059 -109.87,0 -201.7,-40.782 -275.51,-122.309 -73.82,-81.551 -110.72,-179.82 -110.72,-294.82 0,-110.723 36.9,-205.992 110.72,-285.813 C 3878.14,39.9102 3969.13,0 4077.27,0 c 54.07,0 112.85,15.4492 176.38,46.3516 V 207.281 c -47.21,-54.941 -104.73,-82.39 -172.52,-82.39 -71.25,0 -130.67,28.961 -178.31,86.898 -47.63,57.93 -71.45,123.371 -71.45,196.332 0,75.52 24.02,142.688 72.1,201.488 48.05,58.77 107.7,88.18 178.95,88.18 68.66,0 125.73,-27.469 171.23,-82.391 z m 338.59,-87.551 h 173.8 V 802.078 H 4298.7 V 690.07 h 173.8 V 20.6016 h 119.74 V 690.07" /><path
         id="path22"
         style="fill:#f3c816;fill-opacity:1;fill-rule:nonzero;stroke:none"
         d="M 1107.36,822.344 885.605,386.742 819.363,486.102 H 714.242 L 896.695,196.621 1215,822.344 h -107.64" /></g></g></svg>